/* XPM */
static char *_77b45d04ea04cb6f9d33c98bea22dea0X3HYJ52FzMQbJGl[] = {
/* columns rows colors chars-per-pixel */
"64 64 148 2 ",
"   c black",
".  c #210800",
"X  c #290800",
"o  c #290C08",
"O  c #291008",
"+  c #311008",
"@  c #311408",
"#  c #3A1408",
"$  c #421408",
"%  c #421808",
"&  c #421C08",
"*  c #421810",
"=  c #421C10",
"-  c #4A2010",
";  c #4A2410",
":  c #522010",
">  c #522410",
",  c #5A2410",
"<  c #522810",
"1  c #522419",
"2  c #522819",
"3  c #562B19",
"4  c #5A2819",
"5  c #5A2D19",
"6  c #5A3119",
"7  c #632D19",
"8  c #633119",
"9  c #633519",
"0  c #633121",
"q  c #633521",
"w  c #6B3521",
"e  c #633921",
"r  c #673921",
"t  c #633B25",
"y  c #673D25",
"u  c #6B3921",
"i  c #6B3D21",
"p  c #6B3F25",
"a  c #6F3F25",
"s  c #6B3D29",
"d  c #733D21",
"f  c #733F25",
"g  c #6F4329",
"h  c #6B452D",
"j  c #6F492D",
"k  c #734121",
"l  c #734129",
"z  c #734329",
"x  c #734529",
"c  c #734729",
"v  c #73452D",
"b  c #77472D",
"n  c #7B4529",
"m  c #774929",
"M  c #77492D",
"N  c #774B2D",
"B  c #7B4929",
"V  c #7B4D29",
"C  c #7B492D",
"Z  c #7B4B2D",
"A  c #7B4D2D",
"S  c #7B4931",
"D  c #7B4D31",
"F  c #7F4D31",
"G  c #7F4F31",
"H  c #7F5131",
"J  c #804B2D",
"K  c #804D2D",
"L  c #804D31",
"P  c #844D31",
"I  c #805131",
"U  c #845131",
"Y  c #845331",
"T  c #845531",
"R  c #845335",
"E  c #885331",
"W  c #885531",
"Q  c #8C5531",
"!  c #885335",
"~  c #885735",
"^  c #8C5735",
"/  c #8C5935",
"(  c #8C553A",
")  c #8C573A",
"_  c #88593A",
"`  c #8C593A",
"'  c #8C5B3A",
"]  c #905B3A",
"[  c #94593A",
"{  c #905F3A",
"}  c #945D3A",
"|  c #905D3E",
" . c #905F3E",
".. c #945F3E",
"X. c #94613A",
"o. c #94613E",
"O. c #94653E",
"+. c #98613E",
"@. c #98633E",
"#. c #946142",
"$. c #986342",
"%. c #986742",
"&. c #9C6542",
"*. c #9C6742",
"=. c #9C6942",
"-. c #9C6D42",
";. c #9C6946",
":. c #9C6B46",
">. c #A56942",
",. c #A56D42",
"<. c #A06B46",
"1. c #A06D46",
"2. c #A56D46",
"3. c #A06D4A",
"4. c #A06F4A",
"5. c #A56D4A",
"6. c #A56F4A",
"7. c #A5714A",
"8. c #A5754A",
"9. c #A0734E",
"0. c #A9734A",
"q. c #AD714A",
"w. c #AD754A",
"e. c #A9774E",
"r. c #AD794A",
"t. c #AD7552",
"y. c #AD7952",
"u. c #AD7D52",
"i. c #AD7D56",
"p. c #B57D52",
"a. c #B58252",
"s. c #B18256",
"d. c #BD8652",
"f. c #B5825A",
"g. c #B5865A",
"h. c #BD865A",
"j. c #BD8A5A",
"k. c #BD8E5A",
"l. c #BD8A5F",
"z. c #BD8A63",
"x. c #BD8E63",
"c. c #C59263",
"v. c #C59663",
"b. c #CE9A63",
"n. c #CE9A6B",
"m. c #CE9E6B",
"M. c #D6A673",
"N. c #E6B684",
/* pixels */
"1.w.@.U w.7.7.U 7.j.=.B B i / / / ~ ~ ~ #.6.6.6.5.p + p ,.~ 0 q ~ P 5 P U 6.L 5 5 r r $ r + r [ 0 l f f f L *   I 5 Z 5 5 r y.u.",
"` @.w.@.@.o.o.o.o.=.=.=.=.i / w.q.#.! B ! 5.6.y X p >.2.,.q q w.~ P U P P 6.6.5 5 r ` r ` q + [ q > > [ f * * * * 5 Z 5 Z ` _ ` ",
"` w.w.w.U o.7.o.U B B =.=.w./ / / ~ ~ B #.6.6.y y ,.,.,.,.w.~ ~ w.P q.P P 6.6.L 6.` ` r ` r r 0 [ > > [ f * d.d.* Z Z Z =._ q q ",
"7.x.X.e.X.y.n.y.y.1.` 1.a.p.l l l ~ ~ ~ 6.j.j.f %.f.f.` f.&.P P a.c %.%.c i.f i.i.p.i u i = = m c 5 5 U R ] = ` - % Z % C 4 R R ",
"7.X.e.X.X.l.y.y.y.1.` ` 1.p.....l ~ ~ i 6.c %.%.%.f.` ` ` P =.P &.h.%.$.l l c i.c i { { { m = c l 5 5 5 y.- = ] p p.p.C A 4 R u.",
"^ X.X.X.X.y.n.l.y.1.1.` 1.p.p...l ~ ~ i i c c j.j.f.8 f.f.&.a.&.P %.l %.c c c N.i.i p.i u =.m &.c 5 y.5 5 - ` ` = A p.A C u.R R ",
"7.x.X.e.e.y.n.n.n.a.a.1.1.p...l l ~ ~ ~ 7.j.j.j.j.` f.f.` a.a.&.&.%.%.c l c l c c u u { { =.=.c c R y.R 5 p ) ) a % A C C R 4 4 ",
"s.e.x.} e.7.b.b.7.8.8.8.8.h.&.B B T U T U A A 7.A  .c.c. .y.y.o.o.C X.o.C H H H u.7.$ 7.7.P P 3 3 7.8.T 8.6.6.6.6.i i i i 4 G H ",
"&.[ x.x.e.D D D 8.o.P o.8.&.B B =.i U =.i 7.A > 6. .c.| 4 B B o.o.X.X.C 0 > u.u.u.7.l 7.l P P 3 4 8.8.8 U 6.- = 6.o.i i O.8.8.4 ",
"&.e.} x.x.D D D 7.o.P P o.B =.h.h.U T =.i 7.7.A A   4  . .B B B o.C X.X.X.H H H H 7.c 7.7.3 P P 3 8 8 8 U C C b 6.o.i i o.I I L ",
"s.x.e.} e.7.D D D P o.o.o.B &.h.=.i =.=.U 7.A A 7. . . . .B B B B X.C 0 C > > H > c f c l 3 P P X T 8 E U = b b 6.o.j.o.i 4 8.L ",
"h.f. . . .7.U U 8.;.B ;.;.n =.n n r.r.U T U U p.&.&.U u U ~ 6 ~ p...n ....i K i K P P P 7 ) ) 4 4 K J K K w.G 1   $ =.=.l o.f.f.",
"o. .f.f. .7.U U U ;.B z.;.^ =.=.=.r.r.r.5 &.p.=.U U U U U p.6 6 6 n n n n K } } ..P 7.7 7 ` 4 4 ) J J 7.7.L L 1 1 $ $ l =.X.k #.",
"i i  .f. .U v.8.7.z.;.B B / ^ =.=.T r.r.r.U U &.=.U U =.=.p.6 6 6 n ......K } } } 6.7.P P ) ) ) h.J , 7.K L q.I L =.i =.=.X.k f.",
"o.i i  .i U 8.v.v.z.B B ;.=.^ n / U U T 5 U U =.&.=.=.=.=.~ p.p.~ y...y.y.K } } } 7.7.U 7.) h.) h.J J 7.J w.w.A L =.=.i f k k X.",
"u.%.l l l u u u u I I -.-./ / / 7.&.K K 9 1 l l l ~ ~ ~ X.&.Q Q Q u.G G G 8 8 U U K &.K &.6.6.` 6.> > > P 4.f.f.9.:.U :.;.` f f ",
"u.%.l l l u &.&.&.I I -.-./ / 7.7.&.K K &.l } } } D D D ~ Q Q Q Q G G : G 8 8 U U &.&.9 J 6.) c 6.p.U > > ` ` ` ` g.;.U U { u.{ ",
"k l %.%.%.P U &.&.q I q I 7.7./ / &.&.&.&.} } } } X.X.X.X.&.Q y.Q G y.G G U 8 8 U K &.&.J c 6.` l U U U p.f.f.` ` g.U U U { u.y.",
"{ %.k.k.%.U &.P P I -.I q k / 7./ K K J K } l l } ~ X.X.X.=.&.=.y.u.G > > 7 7.U 8 9 K &.K ` ` ` c U U U U 4.4._ f.g.;.U U { u.u.",
"y.<.` <.p.g.g.[ [ h.T T T u P U &.%.y.%.U B B B E E B B B P o.P P { u ] { <.h.<.U 1.` ` 1.U U U P ] 7.7.] B n B o.S p.$.$.t.....",
"o.p.p.) <.6.[ 6.[ 1.T T T U P U &.$.U U %.E E B B } } E B P P P ..w u { { <.U U U ` ` 1.a.%.%.U %.7.6.7.] o.p.t.n $.$.S $.t.....",
"B <.p.p.p.6.[ 6.6.T T T T &.&.P &.%.U U $.} } E B } } E B P o.o.8.{ ] { u P U <.<.` 1.1.1.%.%.%.u.n n ] ] o.o.o.y.p.$.$.$.B B ..",
"o.` p.p.<.6.g.6.[ T T T T P P U P %.y.y.U B B E E E E B B P P P ..{ a.a.{ <.U U U a.a.1.` U u.u.u.X.9.{ ] B B B y.%.$.p.p.......",
"t.%.%.%.u.=.j.&.n { { U U B / B / @.@.w.U B X.W W ] U U U U B B B B B i Q 7.7.7.n &.&.P &.=.&.B &.P t.y.K 4.4.l f C Z ,.,.o.7.7.",
"%.%.P $.u.j.j.&.n { U { &.=./ / =.w.w.w.U B X.B X.&.] ] U ` ` B U B i i B ] 7.] ] P &.&.p.h.&.=.h.P P P P m.m.4.9.2 2 2 A U U o.",
"%.$.%.P P &.j.=.n { { ] { =./ / / U w.w.U B W B B ] ] ] U ` ` B ` B B B i n ] ] ] &.&.p.p.&.B =.=.y.M.M.y.4.l l 4.2.C A ,.7.o.7.",
"P %.y.%.%.&.n n &.=.] { { =.=./ =.U U U P W W n B U U &.U ` ` U U Q Q Q Q 7.7.] n P &.p.P B B B B P y.y.P l l l l A 2.C ,.7.U o.",
"1.` ` j.j.8.` ` 8.6.6.[ 6.} } } g.r.@.P P { { { { ] U ] U / / U U E B E E ^ &.^ ^ B / =.B ` D ` D D D D p.` y._ 9 I ;.G D U P &.",
"u.7.` 7.j.7.8.7.` 6.6.} 6.} } } 7.r.@.@.@.{ { ] { &.] U U X.X.U U E E E E ^ ^ ^ &./ / / =.&.D ` &.%.p.S D y.y.y.' D D D D u &.&.",
"1.7.7.7.` ` ` 7.k.f.} } } } } 7.} P P @.w.a.{ u u P U ] ] / U U U E } } B B &.B &.=.B B =.` D ` ` %.%.D D y.i y.' :.j.D D u &.&.",
"u.7.7.7.` 8.` ` 7.f.} 6.} } 7.} } @.P r.r.a.{ u u U &.U U / U P U B B B E &.^ B B / / / B &.&.D S %.%.$.p.y.y.' ' D ;.:.D U P u ",
"@.....p.p.&.U U U ~ 7.7.7.} } } } P P ..7.w.} w.B { { ] -.} D ~ D [ E V E O.o.o.V B / =./ X.E n E ] =.=.X.7.g.} } P P P &.o.B o.",
"w...l l ..U i U &.~ ~ 7.7.0.j.0.0...P P 7.w.w.w.} { P L ' S L ~ D [ E E [ o.y.y.o.=.=./ / W E E E ] =.=.=.} } 7.} P &.a.a.o.o.o.",
"w.p...l p.&.i &.&.7.~ 7.7.j.j.0.0.7.7.....w.X.B } -.{ X.P L ] } D V E [ E V y.o.O.=.=.=.B n E X.E ] =.] =.7.} } } &.P =.=.o.y.y.",
"U ..p...p.U i &.&.6.~ u ~ 0.j.j.} ..7.7.7.w.} } } P ` P P I ~ ! D V E [ [ y.O.V o.=.=.=.B E X.E E P P P =.7.} [ g.a.P P P B y.y.",
"r.8.> A 8.U U U U } u.1.} o.o.U 6.6.....6.y.$.%.%.l l ) ) l ! ~ ~ T T T T } } } } @.@.@.w.} } } } U U %.P ~ ~ ~ ,.&.&.&.&.~ ~ ~ ",
"r.8.A A 8.;.;.U U } } u.u.7.U U o.6.6.6.6.%.t.y.%.f ) ) f l =.;.R T T O.T } } } } U U @.@.c U [ } %.%.P %.~ ,.,.s l &.c &.y.~ ~ ",
"U A 8.8.8.;.U ;.U 1.1.} 1.7.7.o.U ..5.5...U %.y.%.l 5.5.l ~ ~ ! ~ T O.8.8.} } E E @.@.U U U } c } t.y.y.y.>.,.,.,.&.c l c ~ ~ 8 ",
"4 A A A 8.U ;.f.;.} 1.} 1.7.U 7.7...P ..U U %.U U 6.5.5.) l l >.~ T 8.8.O.B B E E U U U U } P U } U %.U U ,.~ ,.,.c ; c &.8 8 u.",
"i U i U =.o.B y.y.a.] { a.:.:.:.;.U P v.7.` 8.%.8.y.t.#...@.o...P l l =.l B B } B E n E E P ] &.&.B B B B 7.n 7.n c c 2 X.7.I I ",
"o.=.=.T =.y.B B o.a.a.{ { ;.m.:.;.v.U U U ` =.8.=.B y.#.B o.w.@.@.l l l l B B B B n n n X.P P &.] B ~ B #.] n ] 6.X.2 c 2 6 6 I ",
"i i U i =.o.B o.y.u u a.u ;.m.;.m.v.U U 7.8.%.` _ o.X.B B @.w.w.P f l l l B } X.B n n E } ] P ] P B n B B n ] ] ] X.} c X.I 6 6 ",
"..U i T U o.o.o.o.{ X.a.u u ;.m.:.8.7.8.7.` ` ` 7.o.B o.y.@...w.P l %.k.%.w.w.} } } E E E P P P P B ~ ! B n ] ] ] X.X.X.X.I 7.I ",
"f.7.7.7.P U =.U I a.a.a.a.7.I 7.7.7.` 7.` U U %.p.#.b #.#.p.p.$.p.o.o.i.u.p.o.l l { { B B ` ` b b ~ ~ #.#.` B U ` ] n ] ] U U i ",
"o...7.7.P U U U I v   O O 5 5 L 7.7.) l ` p.=.U &.#.#.#.#.p.p.$.$.u.y.n o.o.l ..l B B { { ) ` ` ) B ~ ! ~ P B B ` 7.] ] ] U U U ",
"f.P ..7.7.=.a.a.a.j j j a.7.I 5 5 l ` ` ` p.=.&.%.#.#.#.#.$.$.$.S n n n n ..p.p.o.7.7.n B ` b b ` #.B B B B U B U 7.] ] ] U U U ",
"o.P o.P P U a.U U v a.a.a.7.7.7.7.7.c ` 7.=.p.p.p.v 1 #.#.S $.$.$.o.n ..o...p.p.p.7.{ { 7.` ` b q B ~ ! B U ` ` U ] ] ] ] U U U ",
"M w.w.M = 6 &.&.6 u E E ,.5 5 L 7.,.,.; ; q ' ` r n } n n n ..y.n ` 6.6.6.t.y.~ y.1.U U 1.6.` ` ` B B ] { U T U U ^ ^ ^ =.{ U U ",
"j.w.w.M w.&.&.&.A W E E u 5 I 7.G m ,.,.m q a.a.) r.q. .n n ..y.n l 5.6.` y.y.~ y.j.j.1.U ` ` ` h.6.n ] ] 7.U U T ^ =.^ ^ =.U U ",
"M M w.w.w.A 6 C C u ,.,.u L 7.7.7.B m ,.,._ a.) ' r.w.w.[ n ..n n 6.) ) ` ~ y.t.y.U 1.1.1.` ` 6.h.] B B ] 7.U T 7.^ =.=.n U =.{ ",
"M = M w.M 6 A &.&.,.,.W u I 7.L 7.,.m B B _ r r ` } n } n ..t.n n ` c 5.` 9 W i.~ U U U U ` ` ` ` B B B 6.7.U 9 9 n ^ ^ n U { &.",
"a.c.9 O.o.; w.w.w.a.a.# M #.#.#.#.` _ A i y.y.' y.y...o.n ) g.4.4.p.n ..@.c ) l l ~ 7.7.~ 7.7.{ B &.&.&.t u.h o   u L L #.o.U U ",
"a.c.c.9 o.V A A ; N #   M #.M #.5 Z C u ) i.t.l l o.y.n n ) ) ) ) ..J ..@.6.` l ` ~ i 7.7.7.7.7.{ &.&.t   o u.u.u.L L u #.o.o.o.",
"a.9 O.6 O.w.w.; A a.M # N M b b 5 i Z Z )  . .f l n ..n ..g.g.4.) ..} n n ` 7.7.7.7.i i 7.B B 7.{ &.t &.&.o h u.u.u #.#.#.o.7.7.",
"~ O.o.c.o.A A - ; a.a.M a.#.5 5 Z ` ` ` Z l  . .y...n n ..4.4.g.f.@.p.@.n l c ` l ~ 7.~ ~ { B 7.6.&.&.t &.u.h u.u.L #.#.#.U o.7.",
"= ,.,.g O ; c &.&.5 5 C C ..n ....7.o.7.7.t. . .y.R R R p.r.P U w.R ! ! R I L 5 4 i  . .i U T 7.7.~ ! 6.i &.&.6 A w.w.C w.7.R R ",
"&     o y &.&.&.&.C &.&.C n ..y...o.7.7.o.m  .y.y.p.p.p.! r.r.5 5 R 5 R y.7.7.7.7. .i i  .U U U P ~ 6.6.i 6 &.&.C A - C w.7.7.7.",
"e.g y ,.,.&.c &.c &.&.%.&...n n n o.o.o.o.l  . .c R R ! 2 r.r.5 5 5 R y.y.7.I L I ' i f.f.U 7.7.U ! 5.! i &.&.&.&.C A C A R 7.q ",
"q.,.,.,.,.&.&.&.c C C C C ......n U U %.9.#. . .X.2   2 ! I U T U R y.R 5 L L I 5 o.X.i i 9 U 7.7.6.6.~ ~ C &.&.A w.w.w.A 7.R R ",
"w.o.p.o.o.2.h.Q Q =.%.%.%.l ] w.{ T T 9 9 / ~ ! p.i.~ u.~ & % I I B X.{ B ! 7.7.9.=.;.5 A l c ) ) U i =.T e >.>.>.y.$.P %.y.` ` ",
"{ o.p.p.l Q 2.2.W k k k %.] l l ` U U =.U ~ ~ ~ 5 ! s.u.u.I I h.I B B B X.~ ! ! ! =.C 5 C l l 6 l T i i U e e >.>.P P y.$.` y.` ",
"] o.p.o.c Q 2.h.h.k =.x.%.l w.] X.U =.=.U ! ~ p.R 8 8 6 u.h.I I h.B B { ` ~ w ! 7.A A C =.) ) l l i =.=.=.e   e >.y.y.$.y.y.` y.",
"] o.p.o.o.h.h.2.h.%.x.x.x.] w.w.w.U U I =.p.5 ~ ~ 8 W ~ ~ h.h.h.h.{ { 8.B ! ! ! 7.=.=.=.A l ) 6 l i U T U . . >.>.$.%.P %.y.i ' ",
"9.6.s 6.6.y.y.y.y.#.#.#.s Q f 6.6.d d f a.l @ q.q.B B B B k 7./ k ........} } } } g g ,.g c 7.7.  r ) r r i { a.{ U U w.w.D f.D "
};
