/* XPM */
static char *_4b20f7c7f224eb58b2849bd5dd38365nsCy8mRv1CUH3tQC[] = {
/* columns rows colors chars-per-pixel */
"70 63 12 1 ",
"  c gray19",
". c #643207",
"X c #CD9A00",
"o c #FFC700",
"O c #FFE340",
"+ c #004FC9",
"@ c #BC54FF",
"# c #F6D5B3",
"$ c #FFFABD",
"% c #9AFFCF",
"& c gray95",
"* c white",
/* pixels */
"......................................................................",
"......................................................................",
"......................................................................",
"................O......O.......................O......O...............",
"................o......o.....O....ooo....O.....o......o...............",
"................oO....OoO....o...OoooO...o....OoO....Oo...............",
"................oo....ooo....oO..ooooo..Oo....ooo....oo...............",
".........O...o..ooO..OoooO..Ooo.OoooooO.ooO..OoooO..Ooo..o...O........",
".........o...oO.oooO.ooooo..oooOoo$$$ooOooo..ooooo.Oooo.Oo...o........",
".........oO..OoOooooOoo$oooOoooooo$$$ooooooOooo$ooOooooOoO..Oo........",
".........oo...ooooooooo$$oooooooo$OOO$oooooooo$$ooooooooo...oo........",
".........Ooo..ooooooooo$O$ooo$ooo$OOO$ooo$ooo$O$ooooooooo..ooO........",
".........Oooo.Ooooooooo$OO$oo$$o$O...O$o$$oo$OO$ooooooooO.oooO........",
"..........oooo*oooo$ooo$O.O$o$O$OO...OO$O$o$O.O$ooo$oooo*oooo.........",
"..........ooooooooo$$oo$O..O$O.OO.....OO.O$O..O$oo$$ooooooooo.........",
"....O.....Ooooooooo$O$o$O.. OO..O.  ..O..OO...O$o$O$ooooooooO.....O...",
"....oO.....ooo$oooo$OO$$O..  O....   .... ....O$$OO$oooo$ooo.....Oo...",
"....oo.....oooo$ooooOOO$O.. $   ..  $ ... ....O$OOOoooo$oooo.....oo...",
"....ooo..O.Ooooo$ooo$O*OO.. $$$$    $$ . $ ...OO.O$ooo$ooooO.O..ooo...",
"....OoooO*o*oooo$$oo$O* O.. $$$ $$  $$$  $ .. O..O$oo$$oooo*o*OoooO...",
".....ooooo*oooooo$O$oO*  .. $$$  $$$ $$  $$   ...Oo$O$oooooo*ooooo....",
".....ooooooOooooo$OOO$O $   $ $ $ $$ $$$ $$ $ ..O$OOO$oooooOoooooo....",
".....Ooooooooo$ooo$O*OO $$$  $  $$   $$$ $ $$ ..OO*O$ooo$ooooooooO....",
"......ooooooooo$$ooOO.. $$$$$ $ $$$$ $ $$ $ $ .O..OOoo$$ooooooooo.....",
"......oooo$oooo$O$$$O.. $$$$$$  $$$$$  $$  $$ ....O$$$O$oooo$oooo.....",
"......Ooooo$oooo$OOOOO.. $$$$$$$ $$$$$ $$ $$$ ...OOOOO$oooo$ooooO.....",
".......oooo$$ooo$O..OO.. $$$$$$$ $$$$$ $$ $$ ....OO..O$ooo$$oooo......",
".......Ooooo$$ooo$O...O.. $$ $$$$ $$ $$    $ ...O...O$ooo$$ooooO......",
"........oooo$$$$o$O....... $$ $ $ $$$ $ $$$ ........O$o$$$$oooo.......",
"........Ooooo$$O$o$O.....   $$ ###### $ $$$$ ......O$o$O$$ooooO.......",
".....o...ooooo$OO$oO...  $$$ $ #########  $$$ .....Oo$OO$ooooo...o....",
"......o..Ooooo$$OOO$O.... $$$  ########### $$$ ...O$OOO$$ooooO..o.....",
"......oo..ooooo$O..OO..... o # ###########  $$ ...OO..O$ooooo..oo.....",
".......oo.Oooooo$O...O.....  ###    ###### . $ ..O...O$oooooO.oo......",
".......Ooo*oo$oo$O.......... #### &&  ### ...  ......O$oo$oo*ooO......",
"........oooooo$oo$O..........  ###  &% ## .... .....O$oo$oooooo.......",
".........ooooo$$oo$O..........  ######## ..........O$oo$$ooooo........",
".........Oooooo$$$$O........  @   #####  ..........O$$$$oooooO........",
"..........ooooo$$O$$O...... ## @ #     #  ........O$$O$$ooooo.........",
"...o.......ooooo$$OO$O..... ## @@ ###### # ......O$OO$$ooooo.......o..",
"....oO.o...Oooooo$$OOOO... ### @@@  ## #   .....OOOO$$oooooO...o.Oo...",
".....oo*oO..ooo$oo$O**OO.  +#   @@@@    @  .  .OO**O$oo$ooo..Oo*oo....",
".....OooooOoOooo$$o$O***  # +       @@@@  # ## ***O$o$$oooOoOooooO....",
"......ooooooooooo$$$O** ##  + * ++      + ++  # **O$$$ooooooooooo.....",
".......ooooooooooo$OOO ## #  *    ++++++  + # # *OOO$ooooooooooo......",
"........ooo$ooooooo$O* ##### *  @@      @  #### O*O$ooooooo$ooo.......",
"........Oooo$$oooooo$O* ####    @@@@    @@ ### ..O$oooooo$$oooO.......",
".........Oooo$$$$oooo$O* ## .  @@@@@    @@    ..O$oooo$$$$oooO........",
"..........oooo$O$$$$oo$O*  ..  @@@@@   @@@ ....O$oo$$$$O$oooo.........",
"...........oooo$OOO$$$$$O...  @@@@      @@@ ..O$$$$$OOO$oooo..........",
"............oooo$OOOOOOOOO..  @@@      @ @@ .OOOOOOOOO$oooo...........",
"............Ooooo$$OOO.....  @@@@@      @ @ .....OOO$$ooooO...........",
".........O...Ooo$oo$O*O....  @@@@        @ .....O*O$oo$ooO...O........",
"..........o.O*$oo$oo$O.....         .      ......O$oo$oo$*O.o.........",
"...........o*o*$$o$ooOO....       ...      .....OOoo$o$$*o*o..........",
"............O.o*o$o$O$OO...      ....   XXX ...OO$O$o$o*o.O...........",
"...............o*o$o$O..O. XXXX ...... XXXXX .O..O$o$o*o..............",
"................O.oOo*O... XXXX .......      ...O*oOo.O...............",
"....................Oo.O..      ...............O.oO...................",
"......................................................................",
"......................................................................",
"......................................................................",
"......................................................................"
};
