/* XPM */
static char *result[] = {
/* columns rows colors chars-per-pixel */
"64 64 11 1 ",
"  c #301018",
". c #643207",
"X c #482038",
"o c #603030",
"O c #804830",
"+ c #986030",
"@ c #B87830",
"# c #D09038",
"$ c #D8A040",
"% c #E0B048",
"& c #E8C850",
/* pixels */
"................................................................",
"................................................................",
"........................            ............................",
"......................  XoOOO+@@+OoX    ........................",
"....................  XoOOOO+@@@@@@@+OoX .......................",
"................... XoooOOO+@@@@@@@@@+OoX ......................",
"...............    XoooOOOOOOOO++++++++OoX      ................",
"............   XooOOOOoooOO+@##@+++OoooooooooooX   .............",
"........... XoO++++OooooOO@#%%%%###@OOooooooooooooX ............",
".......... XO+@@@++OoooO@#%%%%%%%###@+OOooooooooooo ............",
"......... Xo+@@@++OoooO@#%%%%%%####@+O+@@@+OooooOOoX  ..........",
"........ Xoo@@@++OOooo+#%%%%##@@##@@++@@@@@@+OoO+++OoX .........",
"........ ooo@+O++++Ooo@####@@@@@@##@@@@@@@@@@+O+++++OoX ........",
"........ ooo+O+@##@OoO@@@@@@@@##$$$$##@@@@@@@+O+@++++Oo ........",
"....... XooOO+@####@OO+@@@@#$$$%%%%%%%$#@@@@+++@#@++++o ........",
"....... ooO+@#####@+OOO+@@#$$$%%%%%%%%$#@@@+++@##$@++OoX .......",
"...... XoO+@#####@+OOOOO+@$$$$%%%%%%%%$@#%&@++@###$@+ooo .......",
"...... XOO@#####@+OO+++OO+#$$%%%%%%%%$@#%%&$@++@##$#+oooX ......",
"...... oO+#####@+O++++++++@$$%%%%%%%$#@%%%%&$@++@##$@OooX ......",
"...... oO@##@@+++++@@@@@++++@@#####@@@#%%%%%&%@O+@##$+ooXX .....",
"..... Xo++@@@+++++#$%%%$@@##$$$#%%%%$@$%%%%%%&%@O+@#$@Oooo .....",
".... Xoo++++++O+@#%%%%%#@#$%%%%$&&&&%#$%%%%%%%&#OO+##@Oooo .....",
".... ooo+++++O+@#%%%%%$##%&&&&%$&&&&&%#%%%%%%%&%+OO+@@+oOO .....",
"... XooXO++OOO+#%%%%%$##%&&&&&$&&&&&&&#%%%%%%%%&#OOO+++O+O .....",
"... oooXoOOOOO@$%%%%$##%&&&&%%%&&&&&&&$%%%%%%%%&%+OOOO++++X ....",
"... oOoXXoOOOO#%%%%$##@&&&&%%&&&&&&&&&&$%%%%%%%&%@OOOO+++OX ....",
".. XOOoXXXoOOO#%%%$##@@#$$%&&&&&&&&&&&&$%%%%%%%%#@OOO+++OoX ....",
".. O+OoXooOOOO#$$$$#@#%&&&&&&&&&&&&&&&&%$%%%%%%#+OOO+++OoXX ....",
".. ++OooOOOOOO@#$$$@#%&&&&&&&&&&&&&&&&&%#%%%%%$+OOO+++OoXXXX ...",
".. ++OooO++OOO@#$$#@%&&&&&&&&&&&&&&&&&%$@$%%%$+OOO+@++OXXXXXX ..",
".. +Oooo+@@+OO@@##@+%&&&&&&&&&&&&&&&&&$#+@#$#@OOO+@@++OXXXXXo ..",
".. OooOo@@@@O+@#@@++%&&&&&&&&&&&&&&&&%#%&&%#@+OO+@#@+++oXXXooX .",
".. ooOOo@@@@+@$%&&%+$%&&&&&&&&&&&&&&&$%&&&&%#@+O@###O++OoXooOo .",
".. oO++O@@@@@$%&&&&+$$&&&&&&&&&&&&&&%$&&&&&%%#@+@###O++OoooOOo .",
".. o+++O+@@@%%&&&&&@@#$&&&&&&&&&&&&&$%&&&&&%$$#@####OO@+OoOO+O .",
".. o++++O@@+$%&&&&%#@##$&&&&&&&&&&&&$&&&&&%$$$$#####oO#@+OO+++ .",
".. XO+++O+@+@$&&&&#@####&&&&&&&&&&&%%&&&%%$$$$$@###@oO##@O++++ .",
".. XoO++OO@++@%&&%##$###$&&&&&&&&&&%&&&&%%$$$$$+@#@+oO##@O++++ .",
"... ooO+O+#@++#%#@#$%$###%&&&&&&&%%$&&&%$$$$$$$++@+OoO#@+O+++@ .",
"... oooO+@$#@++@++$%%%$#@#$%&&&&%#@#%%$$$$$$$$#+O+OoOO@+OoO+@@ .",
"... ooXO+#$$#@+OO+%%%%%$#@@@@@@@++@#@#$$$$$$$#@+OOOO+O+OooO+@O .",
"... ooXO+$$$$#@OO+%&%%%%$#@@@@+++@###@#$$$$$#@+OOOO+@+OOooo+Oo .",
"... ooXO+#$$$$#+O+$&&%%%%$#@++OO@#####@$$$$#@+OoooO@@@+ooooOoX .",
"... XoXOO+#$$$@+oO@$&&&%%%$##@++######+@##@+Oooooo+@@@+oXXXoX ..",
".... oXooO@#$@+Ooo+@#%&&%$###@@+######++OOOOoooooO@@@+OoXXXXX ..",
".... XXXooO@@+OoXooO+@$$$#####@@######+@+OOOooooO+@@+OOOXXXX ...",
"..... XXXoo++OoXXXooOO+@@######+@####@+@@@+OOOOO+@++OOOOXXX ....",
"...... XXXoOOoXXXooOOOOOO+@@##@O+@#@++O+@@@++++++++OOOOoXX .....",
"....... XXOooXXXooO+@+OOOOO+++OOO++++OOO++@@##@+OOOOOOoXXX .....",
"....... XoOoXXXooO+@@@@@+OOOOOO+@@@@+OOO+@#####+OOOOoXXXXX .....",
"....... XoOOoXXoO+@@@@@@@@++O+@###@+OOO+@#####@OooOoXXoXXX .....",
"....... XoOOOoXoo+@@@@@@@@@+oO+##@OooooO+@###@+oOOOXXooX  ......",
"........ XoOOOoooO+@@@@@@@+OoooOO+++OoooOOOooooOOOooooo ........",
"........ XXoOOOoooO+@@@@@+OooOOO+@@@@+OOOOOooooOOoooooX ........",
".........  XXXXXoooO+@@@+OoXOOO+@@@@@@+OooooooOOOOOoXX .........",
"...........   XXXXooO+++OoXoOO+@@@@@@+OoooooOOOOOOo   ..........",
"..............  XXoOOOOoXXXoOOO+@@@@+OoooooOOOOOOo .............",
"................  XoOOOOOoXXoOOOOOOOOoooooOOOOOOoX .............",
".................. XoOOOOOoXXXXXXXXXoooooooOOOoX  ..............",
"...................   XoOOOoXXXXXXXooooooX      ................",
"......................  XXXXXXXXXXooooooX ......................",
"........................    XXXXXXXoooX  .......................",
"............................           .........................",
"................................................................"
};
